<svg xmlns="http://www.w3.org/2000/svg" viewBox="0 0 24.491 23.054"><defs><style>.cls-1{opacity:0.85;}.cls-2{fill:#f4be2a;}.cls-27,.cls-3{fill:#124e6e;}.cls-4{fill:#0dc0de;}.cls-5{fill:#df2772;}.cls-6{fill:#f99d37;}.cls-7{fill:#deb240;}.cls-8{fill:#eb394c;}.cls-9{fill:#bd9233;}.cls-10{fill:#f0513b;}.cls-11{fill:#9f204c;}.cls-12{fill:#c42c3c;}.cls-13{fill:#1d95d3;}.cls-14{fill:#0b6f9e;}.cls-15{fill:#5eba58;}.cls-16{fill:#43834c;}.cls-17,.cls-28{fill:#4da250;}.cls-18{fill:#f3723a;}.cls-19{fill:#f36b2f;}.cls-20{fill:#57b74d;}.cls-21{fill:#991b43;}.cls-22{fill:#086999;}.cls-23{fill:#409c47;}.cls-24{fill:#387c45;}.cls-25{fill:#f36d33;}.cls-26{fill:#3b7e46;}.cls-27,.cls-28{fill-rule:evenodd;}</style></defs><g id="Layer_2" data-name="Layer 2"><g id="Layer_1-2" data-name="Layer 1"><g id="Layer_2-2" data-name="Layer 2"><g id="Layer_1-2-2" data-name="Layer 1-2"><g class="cls-1"><path class="cls-2" d="M17.137,21.779c-.118.038-.12-.046-.143-.105-.252-.646-.5-1.294-.759-1.936-.061-.15-.015-.214.111-.293.55-.344.548-.347.989.137.348.382.692.77,1.049,1.145.135.142.184.228-.029.344-.356.2-.7.417-1.048.625C17.249,21.73,17.185,21.755,17.137,21.779Z"/><path class="cls-3" d="M4.348,2.568a1.538,1.538,0,0,1,.106.126c.391.573.776,1.149,1.172,1.718.083.118.064.176-.035.273-.476.466-.472.469-1.016.089-.443-.309-.888-.615-1.33-.926-.072-.05-.213-.086-.082-.217a12.948,12.948,0,0,1,1.089-1A.941.941,0,0,1,4.348,2.568Z"/><path class="cls-4" d="M19.838,19.87c-.051-.058-.1-.106-.137-.158-.412-.52-.818-1.044-1.237-1.558-.122-.148-.093-.235.027-.364.41-.442.405-.448.932-.139.468.275.929.56,1.4.826.179.1.186.178.048.319-.3.307-.582.626-.874.939A1.756,1.756,0,0,1,19.838,19.87Z"/><path class="cls-5" d="M9.01,20.414c-.132.688-.267,1.377-.392,2.067-.027.15-.094.138-.211.1A11.222,11.222,0,0,1,7.1,22.12c-.125-.051-.151-.1-.076-.221.377-.6.747-1.2,1.12-1.792.041-.063.073-.14.182-.1.2.075.4.143.607.213C9.036,20.256,9.022,20.334,9.01,20.414Z"/><path class="cls-6" d="M4.2,20.35c.535-.542,1.064-1.075,1.589-1.611.085-.087.16-.116.254-.02a.283.283,0,0,0,.028.02c.546.362.546.361.273.949-.22.476-.444.95-.656,1.429-.076.173-.154.212-.322.1A10.158,10.158,0,0,1,4.2,20.35Z"/><path class="cls-7" d="M10.708.82c0,.489-.051.915-.039,1.4,0,.178-.079.224-.232.254-.593.116-.595.121-.8-.435-.189-.5-.362-1.008-.559-1.506-.081-.2-.041-.279.177-.309.381-.053.76-.122,1.138-.19.239-.044.333,0,.332.283,0,.148,0,.289,0,.434C10.713.79,10.709.81,10.708.82Z"/><path class="cls-8" d="M7.217.865c.1-.014.091.069.111.127.218.645.433,1.291.654,1.934.054.157.011.233-.143.31-.553.275-.549.282-.933-.18-.352-.423-.7-.849-1.059-1.266-.117-.136-.126-.209.051-.292.4-.188.789-.391,1.183-.586A1.284,1.284,0,0,1,7.217.865Z"/><path class="cls-9" d="M2.967,19.147a.83.83,0,0,1-.127-.109c-.284-.362-.565-.725-.847-1.088-.075-.095-.089-.164.045-.232q.951-.482,1.9-.978c.116-.061.171-.025.249.066.427.5.431.5-.011,1-.341.386-.687.77-1.031,1.155C3.088,19.022,3.033,19.077,2.967,19.147Z"/><path class="cls-10" d="M18.186,4.924a4.7,4.7,0,0,1-.578-.523c-.09-.113.081-.235.146-.343.308-.521.635-1.03.943-1.551.093-.158.156-.209.32-.071.337.284.68.559.993.868.078.078.146.139.017.236-.575.436-1.147.876-1.721,1.314A1.209,1.209,0,0,1,18.186,4.924Z"/><path class="cls-11" d="M13.66,20.487A3.537,3.537,0,0,1,14.3,20.3c.134-.051.18.039.226.135q.452.933.9,1.866c.054.109.066.173-.083.217-.455.135-.914.253-1.38.344-.144.028-.173-.009-.181-.138-.037-.61-.082-1.22-.125-1.83C13.739,20.754,13.648,20.621,13.66,20.487Z"/><path class="cls-12" d="M15.9.705c.18.074.371.144.555.228.308.141.781.213.864.466s-.319.538-.5.812c-.23.344-.487.671-.719,1.014-.089.131-.164.136-.3.074-.582-.261-.587-.257-.432-.877.126-.509.259-1.015.392-1.522C15.776.824,15.754.709,15.9.705Z"/><path class="cls-13" d="M2.456,12.033c.092.325-.062.454-.355.526-.583.142-1.162.3-1.738.475-.215.063-.281.009-.288-.2C.063,12.439.034,12.05,0,11.661c-.016-.206.017-.3.275-.259a16.955,16.955,0,0,0,1.729.158C2.368,11.571,2.543,11.674,2.456,12.033Z"/><path class="cls-14" d="M3.355,7.2c-.666-.222-1.33-.447-2-.666-.151-.049-.161-.119-.085-.245q.349-.574.685-1.157c.079-.137.147-.119.257-.025Q3,5.775,3.8,6.429c.1.083.152.145.055.269-.11.141-.2.3-.292.449A1.839,1.839,0,0,1,3.355,7.2Z"/><path class="cls-15" d="M1.1,9.689C.082,9.727.082,9.727.341,8.765c.209-.777.209-.778.949-.457.425.184.846.379,1.276.553.188.076.252.149.188.367-.157.539-.142.547-.72.525a3.433,3.433,0,0,1-.809-.06c.186-.079.376-.016.563-.047A3.454,3.454,0,0,0,1.1,9.689Z"/><path class="cls-16" d="M2.248,14.377c.151-.091.332-.058.493-.11.114-.038.154.033.195.126.268.609.271.609-.309.956-.464.279-.934.548-1.4.832-.141.087-.212.076-.269-.084-.118-.325-.255-.643-.37-.969-.168-.48-.162-.482.375-.538a.167.167,0,0,0,.121.027c.028,0,.056.013.082-.005a.086.086,0,0,1-.083-.034l1.039-.188a.177.177,0,0,0,.123.026c.027,0,.056.012.082-.005A.086.086,0,0,1,2.248,14.377Z"/><path class="cls-17" d="M13.384.1c.828.031.828.031.57.8-.157.466-.326.927-.47,1.4-.059.193-.148.234-.343.2-.568-.1-.573-.093-.6-.674C12.51,1.294,12.5.769,12.467.246c-.012-.185.027-.277.235-.237a2.226,2.226,0,0,1,.568.075.123.123,0,0,1-.137.042C13.184.114,13.286.159,13.384.1Z"/><path class="cls-18" d="M11.889,21.95a4.02,4.02,0,0,1,.126.886c-.029.13-.108.17-.243.169a1.754,1.754,0,0,0-.569.025c-.919.034-.919.034-.715-.81.105-.432.219-.862.3-1.3.047-.238.142-.357.4-.3.162.038.337-.036.494.055a.558.558,0,0,1-.335.031c.056-.012.2.049.335-.032a4.811,4.811,0,0,1,.2,1.215.108.108,0,0,0-.03.053.852.852,0,0,1-.011.123C11.866,22.034,11.84,21.978,11.889,21.95Z"/><path class="cls-19" d="M11.2,23.03c.138-.116.3-.054.455-.057a.4.4,0,0,0,.357-.137c.06.148.027.227-.152.217C11.643,23.042,11.423,23.038,11.2,23.03Z"/><path class="cls-20" d="M1.1,9.689c.241-.153.5-.02.747,0H1.225Z"/><path class="cls-21" d="M13.66,20.487c.179.133.05.267,0,.4C13.651,20.755,13.571,20.621,13.66,20.487Z"/><path class="cls-22" d="M3.355,7.2c.06-.051.113-.132.207-.051C3.531,7.314,3.442,7.25,3.355,7.2Z"/><path class="cls-23" d="M13.384.1c-.1.1-.214.065-.335.048.062-.084.152-.032.221-.062Z"/><path class="cls-24" d="M1.088,14.578l.224.027c-.169.057-.261.072-.345-.014Z"/><path class="cls-25" d="M11.889,21.95l-.027.264c-.062-.148-.069-.239.021-.318A.047.047,0,0,1,11.889,21.95Z"/><path class="cls-26" d="M2.248,14.377l.2.028c-.144.059-.239.067-.324-.014Z"/><path class="cls-25" d="M11.687,20.682c-.147.132-.315.053-.478,0h.478Z"/></g><path class="cls-3" d="M10.534,15.581a.376.376,0,0,0-.177-.316.752.752,0,0,0-.446-.126H7.141l-.818-.784,1.245-1.9a2.068,2.068,0,0,1-1.111-1.933,2.124,2.124,0,0,1,.72-1.719A3.1,3.1,0,0,1,9.228,8.2a3.311,3.311,0,0,1,1.4.253l.574-.606h.951v.834l-.756.455a1.638,1.638,0,0,1,.6,1.39,2.125,2.125,0,0,1-.72,1.719,3.1,3.1,0,0,1-2.051.606,2.078,2.078,0,0,1-.7-.1l-.61,1.011h2.844a1.382,1.382,0,0,1,1.037.354,1.223,1.223,0,0,1,.341.885,1.637,1.637,0,0,1-.146.682,4.414,4.414,0,0,1-.378.67l-1.294-.164A1,1,0,0,0,10.534,15.581Zm-.379-4.24a1.165,1.165,0,0,0-.006-1.63,1.307,1.307,0,0,0-.921-.31,1.313,1.313,0,0,0-.916.31A1.151,1.151,0,0,0,8.3,11.338l0,0a1.308,1.308,0,0,0,.922.31A1.3,1.3,0,0,0,10.155,11.341Z"/><path class="cls-3" d="M13.416,13.109a2.75,2.75,0,0,1-.781-2.086,2.843,2.843,0,0,1,.739-2.073,2.807,2.807,0,0,1,2.106-.758,2.551,2.551,0,0,1,2.007.745,3.024,3.024,0,0,1,.666,2.086v.316H14.161a1.106,1.106,0,0,0,.42.841,1.628,1.628,0,0,0,1.056.322,4,4,0,0,0,.866-.1,5.942,5.942,0,0,0,1.017-.32l.35,1.262a4.606,4.606,0,0,1-2.27.506A3.037,3.037,0,0,1,13.416,13.109ZM16.34,9.766a1.247,1.247,0,0,0-.9-.31,1.352,1.352,0,0,0-.933.31,1.027,1.027,0,0,0-.372.727h2.538A1.019,1.019,0,0,0,16.34,9.766Z"/><path class="cls-27" d="M21.685,8.172a2.854,2.854,0,1,1-2.9,2.854A2.856,2.856,0,0,1,21.685,8.172Z"/><path class="cls-28" d="M22.012,8.19a2.887,2.887,0,0,1,.561.119h0l.006,0,.02.006h0a2.905,2.905,0,0,1,1.37.947l.022.029-.014-.015c-.013-.012-.04-.044-.05-.055s-.021-.021-.021-.021a.2.2,0,0,1-.041-.036c-.013-.012-.033-.032-.033-.028s-.012-.008-.014,0-.009,0-.012.019-.013.011-.015.02a.173.173,0,0,0-.014.031l-.015.017.027.04s0-.033.014-.008a.246.246,0,0,1,.022.039h.03l.039.041a.245.245,0,0,1,.023.055c0,.015.02.032.023.067a.522.522,0,0,1,.008.131c-.01.012-.014.079-.034.107a.459.459,0,0,1-.055.053s-.057-.044-.073-.015.016.085-.008.093-.053.011-.05.031a.938.938,0,0,0,.057.12l-.015.048s.015.054,0,.061-.03.03-.035.023a.6.6,0,0,1-.029-.1.345.345,0,0,0-.048-.086.07.07,0,0,1-.011-.038c0-.014,0-.037-.013-.036a.217.217,0,0,0-.044,0,.352.352,0,0,0-.051.019.021.021,0,0,1-.008-.029l0,0c.014-.021.033-.043.017-.048s-.032.008-.045.016a.2.2,0,0,0-.051.035c-.019.02-.073.009-.039.031s.044,0,.057.03.03.02.035.015.011-.019.027-.011.028,0,.036.018.014,0,.011.024.016.013-.014.035a.51.51,0,0,0-.063.042.128.128,0,0,0,.011.033c.007.019.023.035.029.052a.391.391,0,0,0,.03.083c.014.02.044.017.035.049a.167.167,0,0,0,0,.059,1.228,1.228,0,0,0-.061.107.14.14,0,0,1-.029.071.726.726,0,0,1-.071.076.743.743,0,0,1-.13.063.762.762,0,0,0-.081.014c-.009.007-.059,0-.048.018s.039.085.024.107-.083.019-.081,0,.063-.076.053-.092-.013-.024-.017-.024a.159.159,0,0,0-.038-.007c-.012,0-.029.023-.042.038s-.043.04-.05.052-.035.044-.028.052a.483.483,0,0,0,.058.043.311.311,0,0,1,.032.031,1.207,1.207,0,0,1,.1.173c-.007.011-.029.008-.047.048a.449.449,0,0,1-.145.118c-.032.017-.059.033-.049.01a.046.046,0,0,0-.013-.068c-.033-.027-.094-.106-.121-.094s-.075-.016-.063.017-.031,0,0,.045.07.02.049.052-.057.039-.034.073a.316.316,0,0,0,.071.088c.04.033.1.041.09.094a.544.544,0,0,0,0,.114s-.079-.047-.065,0,.05.061.059.073.048.045.065.068.064-.014.079.006.072.057.061.072-.034,0-.061-.016-.084-.023-.074.014a.167.167,0,0,0,.073.078c.019.012.054,0,.1.006a1.185,1.185,0,0,1,.167.027.633.633,0,0,0,.263.02c.07-.027.092-.039.11-.029s.084-.052.091-.041.113-.04.093-.007-.027.034-.051.037-.054-.01-.09.023a.437.437,0,0,1-.13.081c-.007-.006-.064-.057-.1-.031a.161.161,0,0,1-.118.014,1.17,1.17,0,0,0-.2-.017.551.551,0,0,1-.156-.023.605.605,0,0,1-.1-.044l-.142-.157c-.028-.031-.116-.162-.1-.109s.086.128.041.094-.112-.078-.1-.111.027-.068,0-.08-.063,0-.065-.027.005-.069-.018-.089-.026-.034-.012-.034a.5.5,0,0,1,.121.037c.032.03.065.058.1.085s.061.061.048.018-.038-.045-.064-.106a1.561,1.561,0,0,0-.077-.146l-.006-.048s.034-.054.006-.06-.009-.064,0-.069-.014-.077-.024-.1.044-.13-.011-.084-.085.11-.114.062.034-.119,0-.136-.091-.053-.091-.074-.009-.1-.03-.1a.779.779,0,0,0-.145.008c-.012.011-.133.108-.165.142s-.143.144-.152.157-.052,0-.05.053a.348.348,0,0,1-.019.116c-.007.019,0,.1-.032.127s-.059.049-.08.04-.038-.079-.063-.134a.959.959,0,0,0-.066-.171c-.023-.018-.05-.027-.052-.057s-.025-.154-.025-.168.017-.091,0-.082a.576.576,0,0,1-.11.008.721.721,0,0,1-.062-.081.363.363,0,0,0-.153-.112c-.043,0-.14.022-.157.016s-.161,0-.176-.022-.064-.084-.077-.072-.037.035-.062.02-.2-.129-.21-.141-.039-.022-.048-.014a.026.026,0,0,0-.006.029c0,.006.02.034.026.046s.051.083.06.094.043-.012.053.017-.016.052.006.078.033-.007.054-.006a.124.124,0,0,0,.066-.022c.008-.009.05-.067.062-.055s.027.006.031.028,0,.045.011.046a.311.311,0,0,1,.078.037c.019.017.047.026.05.038s-.035.125-.052.125-.059-.011-.051.011.03.035.01.051-.061.029-.08.052-.1.045-.17.092a1.4,1.4,0,0,1-.21.11c-.018,0-.113.036-.124,0s-.07-.166-.07-.166-.121-.108-.113-.155a.126.126,0,0,0-.018-.117,1.055,1.055,0,0,1-.1-.182c-.009-.019-.019-.092-.027-.11s-.018.045-.017.061-.022,0-.027-.009-.031-.039-.031-.033a.234.234,0,0,0,.023.051.054.054,0,0,1,.018.033.662.662,0,0,0,.024.084c.007.017.042.117.045.123a.58.58,0,0,1,.024.084.692.692,0,0,0,.047.132c.011.012.1.051.1.071s-.011.043.009.059a.438.438,0,0,1,.049.106c.014.031.03.07.071.064s.325-.072.309-.023a1.294,1.294,0,0,1-.1.263c-.034.04-.122.109-.165.153a2.116,2.116,0,0,0-.194.229c-.021.041.011.1.005.135s-.011.05-.005.058a.378.378,0,0,1,.056.116.818.818,0,0,1-.025.2,1.427,1.427,0,0,0-.119.085c-.011.017-.046.033-.038.056s.037.032.036.055-.006.1-.02.11-.046.009-.041.033a.075.075,0,0,1,0,.049c-.007.017-.015.024-.026.052s-.024.06-.035.078a.115.115,0,0,1-.088.052c-.036,0-.088-.017-.113-.013s-.047,0-.051,0a.079.079,0,0,1-.044-.025.6.6,0,0,0-.038-.047.246.246,0,0,0-.03-.075c-.02-.027-.063-.106-.088-.141a.415.415,0,0,1-.053-.12c0-.022-.008-.043-.013-.064a.388.388,0,0,1-.029-.049.34.34,0,0,0-.029-.065c-.011-.015-.046-.054-.046-.069s-.008-.14-.006-.146.038-.041.031-.063a.446.446,0,0,0-.028-.063.148.148,0,0,1-.012-.041.034.034,0,0,0,0-.028.411.411,0,0,1-.027-.051.384.384,0,0,0-.039-.1c-.02-.03-.075-.064-.069-.1a.6.6,0,0,0,.011-.1c0-.018.015-.065,0-.08s-.029-.036-.041-.032-.027.008-.035,0-.031-.061-.041-.065l-.036-.013a.086.086,0,0,0-.029.021c-.009.014-.028.042-.044.033s-.034-.015-.042-.009a.14.14,0,0,1-.043.02.629.629,0,0,1-.07-.154c0-.025-.013-.089-.016-.1A.142.142,0,0,1,18.8,11a1.009,1.009,0,0,1,.008-.1c0-.008.009-.1.009-.126s0-.071,0-.077.03-.13.04-.157.038-.084.038-.084a.137.137,0,0,1,.009-.04.636.636,0,0,1,.026-.083c.009-.021.025-.049.036-.071A.453.453,0,0,0,19,10.2c0-.008.009-.026.01-.014s.012.006.017,0a.229.229,0,0,0,.05-.03c.012-.01.035-.045.045-.05a.519.519,0,0,1,.077-.042c.031-.011.085-.045.1-.039s.032.013.026.022a.065.065,0,0,0-.018.058.528.528,0,0,1,.009.081c0,.017.009.021.03.02s.039-.02.053.005a.157.157,0,0,0,.1.051c.039.006.07-.127.107-.107a.261.261,0,0,0,.1.055.538.538,0,0,0,.12-.007.036.036,0,0,1,.048-.019l.008,0c.034.028.039.035.063.02s.038-.026.056-.04a.3.3,0,0,1,.016-.1c.016-.033.034-.066.038-.077s.019-.055-.011-.046-.06.043-.074.034-.039-.03-.061-.015A.191.191,0,0,1,19.85,10a.783.783,0,0,0-.092.034s-.027-.031-.02-.052.022-.036.021-.056-.016-.037,0-.061A.544.544,0,0,1,19.8,9.79c-.024.011-.047.023-.07.036-.007,0-.012.046-.019.047s-.045-.04-.053-.025a.1.1,0,0,0,0,.063c0,.026-.031.061-.031.061s-.038-.025-.036-.037-.018-.1-.015-.108a.07.07,0,0,0-.015-.039c0-.009-.075-.047-.085-.061s-.023-.071-.032-.058l-.023.035s0,.022.009.026,0,.032.026.05a.636.636,0,0,1,.087.068s-.009.044-.009.044-.035-.029-.038-.014.016.036.008.045-.055.071-.061.063-.012,0-.012.011,0,.027-.014.031-.065-.023-.056-.03a.345.345,0,0,1,.054-.028c.009,0,.02.018.022,0s.01-.028.016-.041.013-.018,0-.028-.081-.067-.087-.078a.43.43,0,0,0-.029-.078.276.276,0,0,0-.029.03c-.007.008-.044.061-.054.056s-.029-.02-.041,0-.015.029-.01.034,0,.02-.006.024a.092.092,0,0,0-.024.028.253.253,0,0,1-.031.042.168.168,0,0,0-.026.054c-.006.025,0,.01-.009.029a.346.346,0,0,1-.04.073c-.014.012-.035.017-.041.026a.12.12,0,0,1-.018.026L19,10.152s-.007-.008-.011,0-.011-.006-.01-.012A.669.669,0,0,1,19,10.058c.009-.021.023-.058.026-.069l.007-.031a.073.073,0,0,1,.008-.025l.018-.027s.006,0,.011,0l.018-.017a.014.014,0,0,0,.014,0c.01-.008.035-.021.037-.024a.471.471,0,0,0,.032-.081c0-.017.009-.042,0-.044a.207.207,0,0,1-.014-.042l.014-.018s.025,0,.025-.009a.091.091,0,0,1,.01-.033l.022-.017a.315.315,0,0,0,.036-.037c.006-.01.028-.045.034-.052a.379.379,0,0,1,.03-.04c.015-.017.063-.1.063-.1.012-.018.025-.035.038-.052,0,0-.024.045-.015.037a.28.28,0,0,0,.028-.031.394.394,0,0,0,.036-.063.254.254,0,0,1,.037-.064c.009-.008.056-.061.053-.052s-.008.045.006.032.013-.015.013-.019l0-.024.02-.049s-.007,0-.015.009-.034.038-.05.054a.177.177,0,0,1-.035.026.059.059,0,0,1,0-.041l.016-.02.007-.014s.014-.018.02-.024L19.6,9.05c.008-.009.056-.058.071-.072l.061-.056a.273.273,0,0,0,.025-.023c.019-.018.023-.018.033-.029a.457.457,0,0,1,.036-.033l.044-.037.041-.031h0a2.984,2.984,0,0,1,.436-.274h0l.007,0c.006,0,.051-.022.017-.006a.25.25,0,0,0-.035.021s0,0,.026-.012a.209.209,0,0,1,.041-.017c.009,0,.049-.018.061-.02a.229.229,0,0,1,.054-.006c.014,0,.02.009.029.009s.024,0,.029,0-.014.018-.022.026a.478.478,0,0,1-.061.038.275.275,0,0,1-.036.015l-.044.007c-.012,0-.076.014-.076.014s-.022.006-.019.012.03,0,.03,0,.031-.012.009.005-.025.019-.02.022-.005.015-.006.02,0,.007.014.008.024,0,.022,0,.006.006.011,0,.033-.026.027-.026h-.032c-.012,0-.006-.006,0-.013a.032.032,0,0,1,.033-.016c.019,0,.029,0,.034,0s0,.019.017.008.026-.021.026-.028-.015,0-.009-.012a.6.6,0,0,1,.069-.042.446.446,0,0,0,.056-.041s.025-.013.016,0-.012.015-.006.016.007.01.013.008.027-.022.027-.028,0-.01-.007-.011-.023,0-.007-.008l.026-.019,0-.011-.007-.009s.027-.01.036-.01a.283.283,0,0,1,.041,0c.007,0,.014.005.007.011a.087.087,0,0,1-.03.016c-.02.01-.03.01-.023.012s.01,0,.015.006a.1.1,0,0,0,.063-.023.112.112,0,0,1,.042-.025c.034-.014.105-.049.116-.053a.545.545,0,0,1,.058-.014c.009,0-.009.009,0,.011s-.012.01-.022.014l-.019.008a.1.1,0,0,0,.039-.006s0,0,.018-.012l.026-.01-.016,0a.075.075,0,0,1,.036-.01l.029,0c.009,0,.025,0,.039,0s.02,0,.022-.007a.056.056,0,0,1,.02-.011l0,.009a.034.034,0,0,0,.018,0c.011,0,.029,0,.024-.009s0-.01-.02-.016a.189.189,0,0,0-.034-.009c-.02,0,.02-.014.02-.014a.044.044,0,0,0,.025.008c.015,0,.061,0,.095,0a.127.127,0,0,1,.058.01c.018.007-.008.005.047.012s.071.007.074.013.008-.006.01-.013.008-.006-.015-.013l-.041-.011c-.026-.006-.012-.01-.013-.02s-.012-.009-.015-.011,0,0,.022-.01.045-.012.05-.015l.022-.017a.059.059,0,0,1,.029-.007l.031,0a.093.093,0,0,1,.023,0c.009,0,.021,0,.015,0s-.011,0,0,0H21.6s0,.005,0,.009l-.015.01s-.014,0,0,.008.006.006.012.013,0,.008,0,.014,0,.016,0,.02.026,0,.009.011,0,.012,0,.017.012.011.006.016,0,.013-.007.022a.064.064,0,0,1-.029.025c-.014,0-.09.011-.09.011s-.025,0-.024,0,.036.012.036.012a.4.4,0,0,0,.07-.005l.035-.016c.008,0,.033,0,.038-.009s0-.024.013-.029.039,0,.019-.014-.039-.014-.033-.017c.022,0,.044-.007.067-.009a.117.117,0,0,0-.045-.006c-.034,0-.028,0-.028,0s-.015-.027-.009-.03.034,0,.014-.009-.023-.008-.018-.017.029-.014.029-.014l.014-.007a.063.063,0,0,1,.023-.008s.02.006.015.009a.032.032,0,0,0-.012.011s.017,0,.017,0l.012-.01.029,0c.006,0,.052.006.066.008s.049.007.061.01l.046.007s.005,0,0,.009-.006.008.007.016.042.01.037,0a.082.082,0,0,0-.012-.02l-.028-.009L21.9,8.2c-.011,0-.032-.005-.046-.009s0-.008-.008-.009l-.012,0,.142.008.044.005s.025,0,0,0h-.009Zm2.044,1.19c.04.055.078.111.113.169h0s.019.059.024.079a.058.058,0,0,1,0,.032L24.2,9.7s0,.028-.007.022-.006-.024-.006-.024l0-.022-.015-.037.013.006a.046.046,0,0,0-.008-.028.071.071,0,0,1-.009-.028.285.285,0,0,0-.016-.03.559.559,0,0,1-.028-.05c-.011-.02-.063-.1-.067-.114l-.006-.013Zm-4.738,0,.032-.044h0l.02-.027,0,0-.023.029c-.007.01.009-.007.012-.006a.374.374,0,0,1-.041.055c0,.007-.008.046,0,.048s-.008.042-.013.052a.117.117,0,0,1-.02.034c-.012.016-.007.025-.018.041a.247.247,0,0,1-.051.046.459.459,0,0,1-.055.053.483.483,0,0,1,.044-.067c.013-.018,0,0,0-.009a.024.024,0,0,1,.007-.016.264.264,0,0,0,.02-.037l.008-.015s.029-.04.032-.047-.017.016-.02.018a.337.337,0,0,1,.019-.032c.011-.017-.006.006,0,0s-.012.013-.007.006l.006-.01a.236.236,0,0,1,.016-.024l-.01.014.009-.014,0,0h0L19.3,9.4h0l.007-.011,0,0Zm1.748-1.138c.035-.008.07-.015.106-.02h-.006c-.009,0-.051.011-.059.014a.174.174,0,0,0-.049.02c-.01.01.1,0,.053.014a.393.393,0,0,1-.1.016c-.018,0,0-.011-.018-.011s-.064.008-.05,0,.053-.015.061-.019a.176.176,0,0,1,.03-.01.337.337,0,0,0,.034-.009ZM19.157,9.991l-.025.033c0,.005,0,.023,0,.018l.018-.03a.017.017,0,0,1,.014-.006c.008,0,.012-.013.018-.022s.024-.01.016-.025-.013-.015-.02,0l-.018.034h0Zm.162-.184a.062.062,0,0,0-.014.046.035.035,0,0,1-.007.034c-.009.01-.026.011-.024.024s.013.02,0,.036a.074.074,0,0,0,0,.036s.025.017.03-.015.016-.067.014-.073-.011,0,0-.034a.1.1,0,0,0,.012-.053S19.318,9.809,19.319,9.807Zm2.605,1.356c-.006.012-.04.07-.033.088a.2.2,0,0,0,.046.085c.021.016.053-.021.054-.027s.026-.03.018-.042-.027-.041-.036-.056a.279.279,0,0,0-.035-.042l-.014-.006Zm1.926-.931c.018.042.031-.007.047-.023a.161.161,0,0,1,.077-.02c.007,0,.03-.011.043-.029s-.017-.126,0-.105.027.027.048.018.019-.052.026-.066.049-.032.022-.067-.045-.06-.038-.069l.043-.041c.006-.006.059-.091.052-.081s-.054.052-.062.035-.033-.014-.044-.032a.44.44,0,0,1-.031-.056s-.012-.041,0-.034.028.015.013-.011S24,9.61,24.014,9.594s.035-.006.014-.041-.115-.237-.11-.213a.352.352,0,0,0,.01.065c0,.007,0,.011.012.029a.282.282,0,0,1,.028.064c0,.008.025.078.03.087s0,.029,0,.04a.147.147,0,0,0,0,.036c.005.012.024.032.014.032s-.032-.016-.019.01.039.015.039.057-.017.048-.029.048-.044-.043-.026,0,.039.035.045.061a.378.378,0,0,1,.017.074c0,.023-.025.017-.028.038s-.028.01-.04.031-.009.041-.022.053-.024.018-.029,0,0-.059-.024-.026a.133.133,0,0,0-.027.076c-.008.013-.03,0-.041.014a.1.1,0,0,0-.007.077.05.05,0,0,1,0,.043c-.006.007.01.006.013.01s.007-.009,0-.015,0-.013,0-.013Zm-.312.323c0,.026.032.089.041.074a.822.822,0,0,1,.033-.095c.013-.022.018-.028.01-.039s-.028-.029-.042-.015-.018.035-.027.043a.1.1,0,0,0-.016.032Zm.111.646a.63.63,0,0,0,.075.108c.019.021.072-.082.059-.11s0-.085-.025-.064-.046.044-.043.064-.031.009-.04,0-.016-.023-.019-.017l-.007.009v.01Zm-.117-.363a.553.553,0,0,0,.043.169c0,.007.043-.014.049-.033s-.008-.051.009-.081,0-.105-.01-.1-.044-.019-.049.013-.009.013-.013.019l-.014.009-.015.007Zm-.1.8c.02-.036.036-.138.057-.136s.021-.017,0-.054-.02-.091.01-.08.061-.056.04-.056-.086-.048-.1-.032-.088.117-.1.144.031.081-.034.082-.12.033-.121.013-.064-.114-.066-.04a.187.187,0,0,0,.051.124.322.322,0,0,0,.079.09c.018.011.053-.026.093.009a.061.061,0,0,0,.081-.007.4.4,0,0,1,.011-.058Zm.2.038c-.012-.02-.065-.07-.053-.087s.051-.061.074-.061.084-.061.077-.067-.036.015-.057.027a.186.186,0,0,1-.078.005s-.041,0-.076.067a.13.13,0,0,0-.012.138c.018.037.039.039.041.048s.029-.012.042-.032a.132.132,0,0,1,.041-.037Zm.44.059c.009.052.022.059.032.067s.03.041.052.017.061-.057.065-.04.041.041.052.049a.024.024,0,0,0,.032-.012v0c.006-.015.024-.066.016-.057s-.022.024-.028.014a.368.368,0,0,1-.036-.04c-.02-.028-.009-.049-.019-.07s-.028-.062-.051-.062a.1.1,0,0,1-.07-.013.133.133,0,0,0-.067-.031c-.014,0-.03-.037-.034-.021s.007.04,0,.056-.024-.008-.031-.02-.027-.056-.042-.036-.038-.02-.034.027a.28.28,0,0,0,.027.1c.01.017.059,0,.073.015s.04.052.04.052a.048.048,0,0,0,.018.008ZM20.8,8.356c-.008.013.013.014.024.011s.054-.016.047-.022a.058.058,0,0,0-.039,0ZM19.2,9.575c-.005.007-.047.072-.046.066a.034.034,0,0,1,.007-.019.354.354,0,0,0,.026-.041.244.244,0,0,1,.014-.028l.035-.053a.3.3,0,0,1,.022-.03c-.005.007,0,0-.005.011l-.023.039-.016.03Zm4.69,3.25c0,.008-.025.06-.015.053s.034-.036.05-.055l.028-.04v-.008s.028-.031.017-.026l-.016.01v.01a.075.075,0,0,1-.014.017c-.011.01-.02.017-.022.015l-.015.011s.009-.019,0-.015-.02.01-.02.016.009,0,.009,0l0,.007Zm-.684.037s.058-.068.051-.082-.017-.023-.018-.041.009-.038-.006-.064-.041-.068-.048-.083.061-.121.072-.133.078-.108.09-.1a.868.868,0,0,0,.124-.044c.008,0,.063-.031.067-.052a.218.218,0,0,1,.039-.083c.007,0,.012.015.026,0s.074-.146.091-.135l.065.046a.277.277,0,0,0,.051-.062c.008-.022.024-.043.017-.059s.048-.061.054-.048.042,0,.052.008.054-.02.057,0a.2.2,0,0,1-.016.081.078.078,0,0,0,0,.056c.006.011.048.038.056.031s.015-.008.014,0a.051.051,0,0,0,.01.021s.038-.037.037-.057a1.37,1.37,0,0,1,.028-.142s.02-.081.027-.058.021.02.021.041a.433.433,0,0,0,0,.072c0,.018.034.03.026.056a.347.347,0,0,0-.017.085c0,.021.008.019.009.025s.035.058.035.067a.368.368,0,0,0-.008.058c0,.026.01.02,0,.045s-.027.081-.035.1-.03.057-.046.084-.056.089-.062.1-.026.048-.041.071a.2.2,0,0,0-.045.041.447.447,0,0,1-.034.04s.011-.03-.013,0-.018.028-.035.033-.025.009-.035.011.011-.059,0-.069a.1.1,0,0,1-.015-.033s.028-.054.015-.04-.067.12-.078.1-.023-.087-.036-.083a1.3,1.3,0,0,0-.145.06.3.3,0,0,1-.074.037c-.01,0-.033.028-.04.04s-.123.032-.137.042-.037.048-.067.051-.059.014-.071,0a.028.028,0,0,1-.013-.031ZM20.4,12.386c.006-.025-.032-.093.008-.122a1.216,1.216,0,0,0,.151-.17c.008-.016.034-.05.046-.027a.448.448,0,0,1,.02.131.31.31,0,0,1-.031.13,1,1,0,0,0-.028.162.369.369,0,0,1-.043.116c-.008.007-.052.038-.065.036s-.062-.011-.05-.026.018-.019.009-.034-.026-.074-.035-.088a.122.122,0,0,1,.009-.084.031.031,0,0,0,.01-.024Z"/></g></g></g></g></svg>