<svg id="Layer_1" data-name="Layer 1" xmlns="http://www.w3.org/2000/svg" viewBox="0 0 69.109 23.054"><defs><style>.cls-1{opacity:0.85;}.cls-2{fill:#f4be2a;}.cls-28,.cls-3{fill:#124e6e;}.cls-4{fill:#0dc0de;}.cls-5{fill:#df2772;}.cls-6{fill:#f99d37;}.cls-7{fill:#deb240;}.cls-8{fill:#eb394c;}.cls-9{fill:#bd9233;}.cls-10{fill:#f0513b;}.cls-11{fill:#9f204c;}.cls-12{fill:#c42c3c;}.cls-13{fill:#1d95d3;}.cls-14{fill:#0b6f9e;}.cls-15{fill:#5eba58;}.cls-16{fill:#43834c;}.cls-17,.cls-29{fill:#4da250;}.cls-18{fill:#f3723a;}.cls-19{fill:#f36b2f;}.cls-20{fill:#57b74d;}.cls-21{fill:#991b43;}.cls-22{fill:#086999;}.cls-23{fill:#409c47;}.cls-24{fill:#387c45;}.cls-25{fill:#f36d33;}.cls-26{fill:#3b7e46;}.cls-27{fill:#898989;}.cls-28,.cls-29{fill-rule:evenodd;}.cls-30,.cls-32{fill:none;}.cls-31{fill:#545751;}.cls-32{stroke:#104e6f;stroke-miterlimit:10;stroke-width:0.5px;}</style></defs><g id="Layer_2" data-name="Layer 2"><g id="Layer_1-2" data-name="Layer 1-2"><g class="cls-1"><path class="cls-2" d="M17.191,21.812c-.118.038-.12-.046-.143-.105-.252-.646-.5-1.294-.759-1.936-.061-.15-.015-.214.111-.293.55-.344.548-.347.989.137.349.382.692.77,1.049,1.145.135.142.184.228-.028.344-.357.2-.7.417-1.049.625C17.3,21.763,17.239,21.788,17.191,21.812Z" transform="translate(-0.054 -0.033)"/><path class="cls-3" d="M4.4,2.6a1.523,1.523,0,0,1,.105.126c.391.573.776,1.149,1.173,1.718.082.118.063.176-.036.273-.476.466-.472.469-1.016.09-.443-.31-.887-.616-1.329-.927-.072-.05-.213-.086-.083-.216A12.794,12.794,0,0,1,4.306,2.659.857.857,0,0,1,4.4,2.6Z" transform="translate(-0.054 -0.033)"/><path class="cls-4" d="M19.892,19.9c-.05-.058-.1-.106-.137-.158-.412-.52-.818-1.044-1.237-1.558-.122-.148-.093-.235.027-.364.41-.442.406-.448.932-.139.468.275.93.56,1.4.826.18.1.186.178.048.32-.3.306-.582.626-.874.938A1.756,1.756,0,0,1,19.892,19.9Z" transform="translate(-0.054 -0.033)"/><path class="cls-5" d="M9.064,20.447c-.132.688-.267,1.377-.392,2.067-.027.15-.093.138-.211.105a11.222,11.222,0,0,1-1.307-.466c-.125-.051-.151-.1-.076-.221.377-.595.747-1.2,1.121-1.792.04-.063.072-.14.181-.1.2.075.4.143.607.213C9.09,20.289,9.076,20.367,9.064,20.447Z" transform="translate(-0.054 -0.033)"/><path class="cls-6" d="M4.254,20.383c.535-.542,1.064-1.075,1.589-1.611.085-.087.161-.116.254-.02a.283.283,0,0,0,.028.02c.547.362.547.362.274.949-.221.476-.445.95-.656,1.429-.077.173-.155.212-.323.1A10.158,10.158,0,0,1,4.254,20.383Z" transform="translate(-0.054 -0.033)"/><path class="cls-7" d="M10.762.853c0,.489-.051.915-.039,1.4,0,.178-.079.224-.231.254-.594.116-.6.121-.806-.435C9.5,1.575,9.324,1.068,9.127.57,9.046.369,9.086.291,9.3.261c.381-.053.76-.122,1.138-.19.239-.044.333.005.332.283,0,.148,0,.289,0,.434C10.767.823,10.763.843,10.762.853Z" transform="translate(-0.054 -0.033)"/><path class="cls-8" d="M7.271.9c.095-.014.091.069.111.128.218.644.433,1.29.654,1.934.054.156.011.232-.143.309-.553.275-.549.282-.933-.18-.352-.423-.7-.849-1.059-1.266-.117-.135-.126-.209.051-.292.4-.188.79-.391,1.183-.586A1.367,1.367,0,0,1,7.271.9Z" transform="translate(-0.054 -0.033)"/><path class="cls-9" d="M3.021,19.18a.88.88,0,0,1-.127-.109c-.284-.362-.565-.725-.847-1.088-.075-.095-.089-.164.045-.232q.951-.482,1.9-.978c.116-.061.171-.025.249.066.427.5.431.5-.01,1-.342.387-.688.77-1.032,1.155C3.142,19.055,3.087,19.11,3.021,19.18Z" transform="translate(-0.054 -0.033)"/><path class="cls-10" d="M18.24,4.957a4.618,4.618,0,0,1-.577-.523c-.091-.113.081-.235.145-.343.309-.52.636-1.03.943-1.551.094-.158.156-.209.321-.071.336.284.679.559.992.868.078.078.146.139.018.236-.576.436-1.148.876-1.722,1.315A1.1,1.1,0,0,1,18.24,4.957Z" transform="translate(-0.054 -0.033)"/><path class="cls-11" d="M13.714,20.52a3.547,3.547,0,0,1,.64-.192c.133-.051.179.039.225.135q.451.933.906,1.866c.053.109.065.173-.083.217-.456.135-.914.253-1.381.344-.144.028-.173-.009-.181-.138-.037-.61-.082-1.22-.125-1.83C13.793,20.788,13.7,20.654,13.714,20.52Z" transform="translate(-0.054 -0.033)"/><path class="cls-12" d="M15.955.739c.18.073.371.143.556.227.307.141.78.213.863.466s-.318.538-.5.812c-.23.344-.487.671-.719,1.014-.089.131-.164.137-.3.074-.582-.261-.588-.257-.433-.877.126-.508.259-1.015.392-1.522C15.83.857,15.808.742,15.955.739Z" transform="translate(-0.054 -0.033)"/><path class="cls-13" d="M2.51,12.066c.093.325-.062.454-.355.526-.583.142-1.162.3-1.738.475-.214.063-.28.009-.287-.2-.013-.391-.042-.781-.072-1.17-.016-.206.016-.3.274-.259a16.955,16.955,0,0,0,1.729.158C2.422,11.6,2.6,11.707,2.51,12.066Z" transform="translate(-0.054 -0.033)"/><path class="cls-14" d="M3.409,7.231c-.666-.222-1.33-.447-2-.665-.151-.05-.161-.12-.085-.245q.349-.576.685-1.158c.08-.137.147-.119.257-.025q.786.671,1.585,1.324c.1.083.152.145.055.269-.11.141-.2.3-.292.449A1.839,1.839,0,0,1,3.409,7.231Z" transform="translate(-0.054 -0.033)"/><path class="cls-15" d="M1.155,9.722C.137,9.76.137,9.76.4,8.8.6,8.021.6,8.02,1.344,8.341c.425.184.846.379,1.276.553.188.076.252.149.188.367-.157.539-.141.547-.72.525a3.421,3.421,0,0,1-.808-.06c.185-.079.375-.016.562-.047A3.439,3.439,0,0,0,1.155,9.722Z" transform="translate(-0.054 -0.033)"/><path class="cls-16" d="M2.3,14.41c.152-.091.332-.058.493-.11.115-.038.154.033.2.126.269.609.271.609-.309.957-.464.278-.934.548-1.395.831-.142.087-.212.076-.27-.084-.117-.325-.255-.643-.37-.969-.168-.48-.162-.482.375-.537a.173.173,0,0,0,.121.026c.028,0,.056.013.083-.005a.088.088,0,0,1-.084-.034l1.039-.188a.178.178,0,0,0,.123.026c.027,0,.056.012.082,0A.086.086,0,0,1,2.3,14.41Z" transform="translate(-0.054 -0.033)"/><path class="cls-17" d="M13.438.131c.828.031.829.031.57.8-.157.465-.326.926-.47,1.4-.059.193-.148.234-.343.2-.568-.1-.573-.093-.6-.674C12.565,1.327,12.554.8,12.521.279c-.012-.185.027-.277.235-.237a2.226,2.226,0,0,1,.568.075.121.121,0,0,1-.137.042C13.238.147,13.341.192,13.438.131Z" transform="translate(-0.054 -0.033)"/><path class="cls-18" d="M11.943,21.984a3.945,3.945,0,0,1,.126.885c-.029.13-.108.17-.243.169a1.754,1.754,0,0,0-.569.025c-.919.034-.919.034-.715-.81.105-.432.219-.862.3-1.3.047-.238.142-.356.4-.295.162.038.338-.036.494.055a.555.555,0,0,1-.334.031c.055-.012.2.049.334-.032a4.818,4.818,0,0,1,.2,1.215.1.1,0,0,0-.029.053,1.024,1.024,0,0,1-.012.123C11.92,22.067,11.894,22.011,11.943,21.984Z" transform="translate(-0.054 -0.033)"/><path class="cls-19" d="M11.257,23.063c.138-.116.3-.054.455-.057a.4.4,0,0,0,.357-.137c.061.148.027.227-.151.217C11.7,23.075,11.477,23.071,11.257,23.063Z" transform="translate(-0.054 -0.033)"/><path class="cls-20" d="M1.155,9.722c.24-.153.5-.02.746,0H1.28Z" transform="translate(-0.054 -0.033)"/><path class="cls-21" d="M13.714,20.52c.179.133.05.268,0,.4C13.706,20.788,13.625,20.654,13.714,20.52Z" transform="translate(-0.054 -0.033)"/><path class="cls-22" d="M3.409,7.231c.061-.051.113-.132.208-.051C3.586,7.347,3.5,7.283,3.409,7.231Z" transform="translate(-0.054 -0.033)"/><path class="cls-23" d="M13.438.131c-.1.1-.214.065-.335.048.062-.084.152-.032.221-.062Z" transform="translate(-0.054 -0.033)"/><path class="cls-24" d="M1.142,14.611l.224.027c-.169.057-.261.072-.345-.014Z" transform="translate(-0.054 -0.033)"/><path class="cls-25" d="M11.943,21.984l-.026.263c-.063-.148-.069-.239.02-.318A.047.047,0,0,1,11.943,21.984Z" transform="translate(-0.054 -0.033)"/><path class="cls-26" d="M2.3,14.41l.2.028c-.145.059-.24.067-.324-.014Z" transform="translate(-0.054 -0.033)"/><path class="cls-25" d="M11.741,20.715c-.147.132-.315.053-.477,0Z" transform="translate(-0.054 -0.033)"/></g><path class="cls-27" d="M25.671,15.538h-.41v-.221H26.28v.221h-.409V17.6h-.2Z" transform="translate(-0.054 -0.033)"/><path class="cls-27" d="M26.449,17.208a.169.169,0,0,0,.161.175h.3a.167.167,0,0,0,.158-.175v-.092h.2v.092a.382.382,0,0,1-.359.4h-.3a.379.379,0,0,1-.359-.4v-.664a.38.38,0,0,1,.359-.395h.3a.382.382,0,0,1,.359.395v.386h-.821Zm.62-.664a.166.166,0,0,0-.158-.174h-.3a.168.168,0,0,0-.161.174v.168h.621Z" transform="translate(-0.054 -0.033)"/><path class="cls-27" d="M28.267,16.544a.165.165,0,0,0-.158-.174h-.3a.167.167,0,0,0-.159.174v.664a.168.168,0,0,0,.159.175h.3a.166.166,0,0,0,.158-.175v-.092h.2v.092a.379.379,0,0,1-.359.4h-.3a.379.379,0,0,1-.359-.4v-.664a.38.38,0,0,1,.359-.395h.3a.382.382,0,0,1,.359.395v.092h-.2Z" transform="translate(-0.054 -0.033)"/><path class="cls-27" d="M28.874,15.559v.62a.316.316,0,0,1,.128-.03h.364a.347.347,0,0,1,.328.361V17.6h-.2V16.51a.136.136,0,0,0-.128-.14H29a.136.136,0,0,0-.128.14V17.6h-.2V15.558Z" transform="translate(-0.054 -0.033)"/><path class="cls-27" d="M29.9,16.149h.2v.041a.324.324,0,0,1,.158-.041h.3a.351.351,0,0,1,.159.041.4.4,0,0,1,.2.354V17.6h-.2V16.544a.167.167,0,0,0-.159-.174h-.3a.166.166,0,0,0-.158.174V17.6h-.2Z" transform="translate(-0.054 -0.033)"/><path class="cls-27" d="M32.121,16.544v.664a.382.382,0,0,1-.36.4h-.3a.379.379,0,0,1-.36-.4v-.664a.382.382,0,0,1,.36-.395h.3A.382.382,0,0,1,32.121,16.544Zm-.821,0v.664a.168.168,0,0,0,.161.175h.3a.168.168,0,0,0,.159-.175v-.664a.167.167,0,0,0-.159-.174h-.3A.168.168,0,0,0,31.3,16.544Z" transform="translate(-0.054 -0.033)"/><path class="cls-27" d="M32.529,17.6h-.2V15.558h.2Z" transform="translate(-0.054 -0.033)"/><path class="cls-27" d="M33.7,16.544v.664a.381.381,0,0,1-.359.4h-.3a.379.379,0,0,1-.36-.4v-.664a.381.381,0,0,1,.36-.395h.3A.381.381,0,0,1,33.7,16.544Zm-.82,0v.664a.168.168,0,0,0,.161.175h.3a.168.168,0,0,0,.159-.175v-.664a.167.167,0,0,0-.159-.174h-.3A.168.168,0,0,0,32.876,16.544Z" transform="translate(-0.054 -0.033)"/><path class="cls-27" d="M34.725,17.6v-.041a.314.314,0,0,1-.161.041h-.3a.313.313,0,0,1-.158-.041.342.342,0,0,1-.125-.114.414.414,0,0,1-.075-.241v-.664a.381.381,0,0,1,.359-.395h.3a.331.331,0,0,1,.16.041v-.041h.2V17.8a.405.405,0,0,1-.2.354.343.343,0,0,1-.16.041h-.3a.381.381,0,0,1-.359-.4h.2a.167.167,0,0,0,.159.174h.3a.167.167,0,0,0,.16-.174Zm-.62-.466v.071a.167.167,0,0,0,.158.175h.3a.169.169,0,0,0,.161-.175v-.665a.169.169,0,0,0-.161-.174h-.3a.166.166,0,0,0-.158.174v.593Z" transform="translate(-0.054 -0.033)"/><path class="cls-27" d="M35.132,16.243v-.094h.2v.758a.19.19,0,0,0,.041.115.151.151,0,0,0,.119.061h.3a.153.153,0,0,0,.121-.061.184.184,0,0,0,.041-.115v-.758h.2V17.8a.4.4,0,0,1-.2.354.35.35,0,0,1-.161.041h-.3a.382.382,0,0,1-.359-.4h.2a.167.167,0,0,0,.159.174h.3a.169.169,0,0,0,.161-.174v-.54a.338.338,0,0,1-.161.041h-.3a.354.354,0,0,1-.159-.041.393.393,0,0,1-.183-.239.405.405,0,0,1-.017-.115v-.664Z" transform="translate(-0.054 -0.033)"/><path class="cls-27" d="M38.436,16.963V15.317H39.1a.382.382,0,0,1,.359.4v.461a.4.4,0,0,1-.113.285.413.413,0,0,1,.113.284V17.6h-.2v-.857a.169.169,0,0,0-.159-.174h-.462V17.6h-.2Zm.662-.613a.169.169,0,0,0,.159-.175v-.462a.169.169,0,0,0-.159-.174h-.462v.811Z" transform="translate(-0.054 -0.033)"/><path class="cls-27" d="M39.864,17.208a.168.168,0,0,0,.161.175h.3a.168.168,0,0,0,.159-.175v-.092h.2v.092a.38.38,0,0,1-.359.4h-.3a.38.38,0,0,1-.359-.4v-.664a.381.381,0,0,1,.36-.395h.3a.381.381,0,0,1,.359.395v.386h-.82Zm.62-.664a.167.167,0,0,0-.159-.174h-.3a.168.168,0,0,0-.161.174v.168h.62Z" transform="translate(-0.054 -0.033)"/><path class="cls-27" d="M41,16.878a.411.411,0,0,1-.073-.111.4.4,0,0,1-.038-.174v-.049a.381.381,0,0,1,.359-.395h.3a.382.382,0,0,1,.359.395v0h-.2v0a.167.167,0,0,0-.159-.174h-.3a.166.166,0,0,0-.158.174v.049a.165.165,0,0,0,.158.174h.3a.327.327,0,0,1,.159.041.372.372,0,0,1,.09.069.391.391,0,0,1,.073.11.436.436,0,0,1,.037.175v.046a.38.38,0,0,1-.359.4h-.3a.378.378,0,0,1-.359-.4v0h.2v0a.165.165,0,0,0,.158.174h.3a.167.167,0,0,0,.159-.174v-.046a.168.168,0,0,0-.159-.175h-.3a.334.334,0,0,1-.158-.04A.388.388,0,0,1,41,16.878Z" transform="translate(-0.054 -0.033)"/><path class="cls-27" d="M42.319,17.208a.169.169,0,0,0,.161.175h.3a.166.166,0,0,0,.158-.175v-.092h.2v.092a.381.381,0,0,1-.359.4h-.3a.379.379,0,0,1-.359-.4v-.664a.38.38,0,0,1,.359-.395h.3a.382.382,0,0,1,.359.395v.386h-.821Zm.62-.664a.165.165,0,0,0-.158-.174h-.3a.169.169,0,0,0-.161.174v.168h.62Z" transform="translate(-0.054 -0.033)"/><path class="cls-27" d="M43.287,17.208v-.1a.4.4,0,0,1,.111-.285.381.381,0,0,1,.089-.071.34.34,0,0,1,.159-.039h.3a.167.167,0,0,0,.157-.17v0a.164.164,0,0,0-.157-.17h-.309a.162.162,0,0,0-.155.169h0v0h-.2v0a.38.38,0,0,1,.359-.393h.3a.379.379,0,0,1,.359.393V17.6h-.2v-.041a.317.317,0,0,1-.161.041h-.3a.34.34,0,0,1-.225-.088A.413.413,0,0,1,43.287,17.208Zm.66.175a.169.169,0,0,0,.161-.175v-.317a.335.335,0,0,1-.157.039h-.3a.171.171,0,0,0-.159.177v.1a.167.167,0,0,0,.159.174Zm.161-.839v0Z" transform="translate(-0.054 -0.033)"/><path class="cls-27" d="M44.454,16.149h.2v.041a.351.351,0,0,1,.159-.041h.3v.221h-.3a.165.165,0,0,0-.158.174V17.6h-.2V16.149Z" transform="translate(-0.054 -0.033)"/><path class="cls-27" d="M46.051,16.544a.167.167,0,0,0-.159-.174h-.3a.165.165,0,0,0-.158.174v.664a.166.166,0,0,0,.158.175h.3a.168.168,0,0,0,.159-.175v-.092h.2v.092a.379.379,0,0,1-.359.4h-.3a.379.379,0,0,1-.359-.4v-.664a.381.381,0,0,1,.359-.395h.3a.38.38,0,0,1,.359.395v.092h-.2Z" transform="translate(-0.054 -0.033)"/><path class="cls-27" d="M46.658,15.559v.62a.311.311,0,0,1,.127-.03h.366a.347.347,0,0,1,.327.361V17.6h-.2V16.51a.136.136,0,0,0-.127-.14h-.366a.136.136,0,0,0-.127.14V17.6h-.2V15.558Z" transform="translate(-0.054 -0.033)"/><path class="cls-27" d="M49.763,15.317h.2V17.6h-.2Z" transform="translate(-0.054 -0.033)"/><path class="cls-27" d="M50.173,16.149h.2v.041a.327.327,0,0,1,.159-.041h.3a.35.35,0,0,1,.158.041.4.4,0,0,1,.2.354V17.6h-.2V16.544a.166.166,0,0,0-.158-.174h-.3a.167.167,0,0,0-.159.174V17.6h-.2Z" transform="translate(-0.054 -0.033)"/><path class="cls-27" d="M51.4,16.149h.2v.041a.33.33,0,0,1,.159-.041h.3a.351.351,0,0,1,.159.041.4.4,0,0,1,.2.354V17.6h-.2V16.544a.167.167,0,0,0-.159-.174h-.3a.167.167,0,0,0-.159.174V17.6h-.2V16.149Z" transform="translate(-0.054 -0.033)"/><path class="cls-27" d="M53.617,16.544v.664a.38.38,0,0,1-.359.4h-.3a.379.379,0,0,1-.359-.4v-.664a.38.38,0,0,1,.359-.395h.3A.382.382,0,0,1,53.617,16.544Zm-.82,0v.664a.168.168,0,0,0,.16.175h.3a.168.168,0,0,0,.159-.175v-.664a.167.167,0,0,0-.159-.174h-.3A.167.167,0,0,0,52.8,16.544Z" transform="translate(-0.054 -0.033)"/><path class="cls-27" d="M53.944,16.149l.3,1.108.3-1.108h.209l-.4,1.455H54.13l-.394-1.455Z" transform="translate(-0.054 -0.033)"/><path class="cls-27" d="M54.873,17.208v-.1a.407.407,0,0,1,.111-.285.367.367,0,0,1,.09-.071.336.336,0,0,1,.158-.039h.3a.166.166,0,0,0,.157-.17v0a.164.164,0,0,0-.157-.17h-.309a.161.161,0,0,0-.154.169h0v0h-.2v0a.381.381,0,0,1,.359-.393h.3a.378.378,0,0,1,.359.393V17.6h-.2v-.041a.318.318,0,0,1-.162.041h-.3a.34.34,0,0,1-.225-.088A.413.413,0,0,1,54.873,17.208Zm.66.175a.169.169,0,0,0,.162-.175v-.317a.329.329,0,0,1-.157.039h-.3a.169.169,0,0,0-.158.177v.1a.165.165,0,0,0,.158.174Zm.162-.839v0Z" transform="translate(-0.054 -0.033)"/><path class="cls-27" d="M56.441,15.761v.388h.283v.221h-.283v.838a.168.168,0,0,0,.161.175h.3V17.6h-.3a.328.328,0,0,1-.088-.012.39.39,0,0,1-.272-.384V16.37h-.2v-.221h.2v-.59h.2Z" transform="translate(-0.054 -0.033)"/><path class="cls-27" d="M57.248,15.811h-.2v-.252h.2Zm0,1.793h-.2V16.149h.2Z" transform="translate(-0.054 -0.033)"/><path class="cls-27" d="M58.476,16.544v.664a.38.38,0,0,1-.359.4h-.3a.379.379,0,0,1-.359-.4v-.664a.38.38,0,0,1,.359-.395h.3A.382.382,0,0,1,58.476,16.544Zm-.821,0v.664a.169.169,0,0,0,.161.175h.3a.168.168,0,0,0,.159-.175v-.664a.167.167,0,0,0-.159-.174h-.3A.169.169,0,0,0,57.655,16.544Z" transform="translate(-0.054 -0.033)"/><path class="cls-27" d="M58.684,16.149h.2v.041a.327.327,0,0,1,.159-.041h.3a.351.351,0,0,1,.159.041.4.4,0,0,1,.2.354V17.6h-.2V16.544a.167.167,0,0,0-.159-.174h-.3a.167.167,0,0,0-.159.174V17.6h-.2Z" transform="translate(-0.054 -0.033)"/><path class="cls-27" d="M62.648,15.538h-.3a.166.166,0,0,0-.158.175v.461a.165.165,0,0,0,.158.174h.3a.36.36,0,0,1,.322.221.4.4,0,0,1,.037.174v.463a.379.379,0,0,1-.359.4h-.3a.381.381,0,0,1-.359-.4V16.8h.2v.406a.167.167,0,0,0,.158.175h.3a.168.168,0,0,0,.159-.175v-.462a.167.167,0,0,0-.159-.174h-.3a.358.358,0,0,1-.321-.221.437.437,0,0,1-.038-.175v-.461a.382.382,0,0,1,.359-.4h.3a.38.38,0,0,1,.359.4v.406h-.2v-.406A.167.167,0,0,0,62.648,15.538Z" transform="translate(-0.054 -0.033)"/><path class="cls-27" d="M63.414,17.208a.169.169,0,0,0,.161.175h.3a.166.166,0,0,0,.158-.175v-.092h.2v.092a.381.381,0,0,1-.359.4h-.3a.379.379,0,0,1-.359-.4v-.664a.38.38,0,0,1,.359-.395h.3a.382.382,0,0,1,.359.395v.386h-.821Zm.62-.664a.166.166,0,0,0-.158-.174h-.3a.169.169,0,0,0-.161.174v.168h.62Z" transform="translate(-0.054 -0.033)"/><path class="cls-27" d="M64.443,16.149h.2v.041a.347.347,0,0,1,.158-.041h.3v.221h-.3a.167.167,0,0,0-.159.174V17.6h-.2V16.149Z" transform="translate(-0.054 -0.033)"/><path class="cls-27" d="M65.491,16.149l.3,1.108.3-1.108H66.3L65.9,17.6h-.227l-.4-1.455Z" transform="translate(-0.054 -0.033)"/><path class="cls-27" d="M66.708,15.811h-.2v-.252h.2Zm0,1.793h-.2V16.149h.2Z" transform="translate(-0.054 -0.033)"/><path class="cls-27" d="M67.735,16.544a.167.167,0,0,0-.159-.174h-.3a.167.167,0,0,0-.159.174v.664a.168.168,0,0,0,.159.175h.3a.168.168,0,0,0,.159-.175v-.092h.2v.092a.379.379,0,0,1-.36.4h-.3a.379.379,0,0,1-.359-.4v-.664a.38.38,0,0,1,.359-.395h.3a.381.381,0,0,1,.36.395v.092h-.2Z" transform="translate(-0.054 -0.033)"/><path class="cls-27" d="M68.343,17.208a.168.168,0,0,0,.161.175h.3a.168.168,0,0,0,.159-.175v-.092h.2v.092a.38.38,0,0,1-.359.4h-.3a.379.379,0,0,1-.359-.4v-.664a.382.382,0,0,1,.359-.395h.3a.381.381,0,0,1,.359.395v.386h-.82Zm.62-.664a.167.167,0,0,0-.159-.174h-.3a.168.168,0,0,0-.161.174v.168h.62Z" transform="translate(-0.054 -0.033)"/><path class="cls-3" d="M54.767,11.989a.205.205,0,0,0,.212.2.2.2,0,0,0,.208-.2h0a.207.207,0,0,0-.208-.2A.21.21,0,0,0,54.767,11.989Z" transform="translate(-0.054 -0.033)"/><path class="cls-3" d="M10.588,15.614a.377.377,0,0,0-.177-.316.752.752,0,0,0-.446-.126H7.2l-.818-.784,1.245-1.9a2.065,2.065,0,0,1-1.11-1.933A2.127,2.127,0,0,1,7.231,8.84a3.1,3.1,0,0,1,2.051-.607,3.311,3.311,0,0,1,1.4.253l.574-.606h.952v.834l-.757.455a1.637,1.637,0,0,1,.6,1.39,2.125,2.125,0,0,1-.72,1.719,3.1,3.1,0,0,1-2.051.606,2.082,2.082,0,0,1-.7-.1l-.61,1.011H10.82a1.381,1.381,0,0,1,1.037.354,1.228,1.228,0,0,1,.342.885,1.653,1.653,0,0,1-.147.682,4.284,4.284,0,0,1-.378.67l-1.294-.164A.989.989,0,0,0,10.588,15.614Zm-.379-4.24a1.165,1.165,0,0,0-.006-1.63,1.307,1.307,0,0,0-.921-.31,1.309,1.309,0,0,0-.915.31,1.151,1.151,0,0,0-.01,1.627l0,0a1.3,1.3,0,0,0,.921.31A1.3,1.3,0,0,0,10.209,11.374Z" transform="translate(-0.054 -0.033)"/><path class="cls-3" d="M13.471,13.142a2.746,2.746,0,0,1-.781-2.086,2.847,2.847,0,0,1,.738-2.073,2.807,2.807,0,0,1,2.106-.758,2.555,2.555,0,0,1,2.008.745,3.029,3.029,0,0,1,.665,2.086v.316H14.215a1.106,1.106,0,0,0,.42.841,1.628,1.628,0,0,0,1.056.322,4.019,4.019,0,0,0,.867-.1,5.96,5.96,0,0,0,1.016-.32l.351,1.262a4.6,4.6,0,0,1-2.27.506A3.033,3.033,0,0,1,13.471,13.142ZM16.394,9.8a1.246,1.246,0,0,0-.9-.31,1.355,1.355,0,0,0-.934.31,1.03,1.03,0,0,0-.372.727h2.538A1.019,1.019,0,0,0,16.394,9.8Z" transform="translate(-0.054 -0.033)"/><path class="cls-3" d="M34.792,13.7H33.584v-.583h-.016a1.353,1.353,0,0,1-1.232.683,1.308,1.308,0,0,1-.948-.336,1.192,1.192,0,0,1-.345-.895q0-1.184,1.426-1.367l1.123-.146q0-.669-.735-.668a2.544,2.544,0,0,0-1.406.433V9.873a3.223,3.223,0,0,1,.729-.238,3.919,3.919,0,0,1,.842-.1,1.55,1.55,0,0,1,1.77,1.736Zm-1.2-1.652v-.274l-.751.1q-.622.079-.622.552a.452.452,0,0,0,.151.351.588.588,0,0,0,.41.137.759.759,0,0,0,.586-.244A.874.874,0,0,0,33.592,12.045Z" transform="translate(-0.054 -0.033)"/><path class="cls-3" d="M37.094,13.225h-.016V13.7H35.8V7.677h1.276v2.565h.016a1.524,1.524,0,0,1,1.346-.711,1.489,1.489,0,0,1,1.232.54A2.3,2.3,0,0,1,40.1,11.55a2.491,2.491,0,0,1-.505,1.632,1.657,1.657,0,0,1-1.349.616A1.312,1.312,0,0,1,37.094,13.225Zm-.036-1.716v.417a.944.944,0,0,0,.23.651.756.756,0,0,0,.59.259.791.791,0,0,0,.677-.332,1.586,1.586,0,0,0,.24-.939,1.258,1.258,0,0,0-.22-.789.751.751,0,0,0-.628-.283.819.819,0,0,0-.636.282,1.057,1.057,0,0,0-.252.734Z" transform="translate(-0.054 -0.033)"/><rect class="cls-3" x="40.879" y="9.598" width="1.277" height="4.067"/><path class="cls-3" d="M40.933,7.676V8.932h1.276V7.676Zm1,.98h-.716V7.951h.716Z" transform="translate(-0.054 -0.033)"/><path class="cls-3" d="M45.785,13.65a1.915,1.915,0,0,1-.852.147,1.205,1.205,0,0,1-1.35-1.377V10.557h-.671V9.631h.671V8.753L44.856,8.4V9.631h.929v.925h-.929V12.2q0,.636.513.636a.871.871,0,0,0,.416-.116Z" transform="translate(-0.054 -0.033)"/><path class="cls-3" d="M49.946,13.7H48.739v-.583h-.016a1.354,1.354,0,0,1-1.232.683,1.306,1.306,0,0,1-.948-.336,1.192,1.192,0,0,1-.345-.895q0-1.184,1.426-1.367l1.123-.146q0-.669-.735-.668a2.544,2.544,0,0,0-1.406.433V9.873a3.223,3.223,0,0,1,.729-.238,3.921,3.921,0,0,1,.843-.1,1.549,1.549,0,0,1,1.769,1.736Zm-1.2-1.652v-.274l-.751.1q-.622.079-.622.552a.452.452,0,0,0,.151.351.59.59,0,0,0,.41.137.759.759,0,0,0,.586-.244.874.874,0,0,0,.226-.618Z" transform="translate(-0.054 -0.033)"/><path class="cls-3" d="M53.458,13.65a1.931,1.931,0,0,1-.853.147,1.205,1.205,0,0,1-1.349-1.377V10.557h-.671V9.631h.671V8.753L52.528,8.4V9.631h.93v.925h-.93V12.2q0,.636.514.636a.871.871,0,0,0,.416-.116Z" transform="translate(-0.054 -0.033)"/><path class="cls-28" d="M21.739,8.205a2.854,2.854,0,1,1-2.9,2.854A2.855,2.855,0,0,1,21.739,8.205Z" transform="translate(-0.054 -0.033)"/><path class="cls-29" d="M22.066,8.224a2.813,2.813,0,0,1,.561.118h0l.006,0,.02.006h0a2.9,2.9,0,0,1,1.37.947l.022.029-.014-.015c-.013-.012-.04-.044-.05-.055s-.02-.02-.02-.02a.248.248,0,0,1-.042-.036c-.012-.012-.032-.033-.033-.029s-.012-.008-.014,0-.008,0-.012.019-.013.011-.015.02a.292.292,0,0,0-.014.031l-.015.017.027.04s0-.033.014-.008a.216.216,0,0,1,.022.039.15.15,0,0,1,.03,0l.039.041a.206.206,0,0,1,.023.055c0,.015.02.032.024.067A.573.573,0,0,1,24,9.623c-.009.012-.014.08-.034.107a.459.459,0,0,1-.055.053s-.057-.044-.073-.014.016.084-.008.092-.053.011-.05.031a1.1,1.1,0,0,0,.057.12l-.015.048s.015.054,0,.061-.03.03-.035.023a.573.573,0,0,1-.029-.1.345.345,0,0,0-.048-.086.07.07,0,0,1-.01-.038c0-.014,0-.037-.014-.036a.3.3,0,0,0-.043,0,.324.324,0,0,0-.052.019.021.021,0,0,1-.008-.029l0,0c.014-.021.033-.043.018-.048s-.033.008-.046.016a.2.2,0,0,0-.051.035c-.019.02-.072.009-.039.031s.045,0,.057.03.03.02.036.015.01-.019.026-.011.028,0,.036.018.014,0,.011.024.016.013-.014.035a.51.51,0,0,0-.063.042.128.128,0,0,0,.011.033c.007.019.023.035.029.052a.391.391,0,0,0,.03.083c.015.02.044.017.035.049a.167.167,0,0,0,0,.059c0,.006-.058.084-.06.107a.15.15,0,0,1-.03.071.716.716,0,0,1-.07.076.789.789,0,0,1-.131.063.762.762,0,0,0-.081.014c-.009.007-.059,0-.047.018s.038.085.023.107-.083.019-.081,0,.063-.076.053-.092-.013-.024-.017-.024a.232.232,0,0,0-.038-.007c-.011,0-.029.023-.042.038s-.043.041-.049.052-.036.044-.029.052a.483.483,0,0,0,.058.043.234.234,0,0,1,.032.031,1.171,1.171,0,0,1,.1.174c-.008.01-.029.007-.048.047a.449.449,0,0,1-.145.118c-.032.017-.059.033-.049.011s.02-.041-.013-.068-.094-.107-.121-.095-.075-.016-.063.018-.031,0,0,.044.071.02.049.052-.057.039-.034.073a.335.335,0,0,0,.071.088c.04.033.1.041.09.094a.544.544,0,0,0,0,.114s-.078-.047-.065,0,.05.061.059.073.048.045.065.068.064-.014.079.007.072.056.061.071-.034,0-.061-.016-.083-.023-.074.014a.165.165,0,0,0,.074.078c.018.012.053,0,.1.006a1.185,1.185,0,0,1,.167.027.636.636,0,0,0,.264.02c.069-.027.091-.039.109-.029s.084-.052.091-.041.113-.04.094-.007-.028.034-.052.037-.053-.01-.09.023a.437.437,0,0,1-.13.081c-.007-.006-.064-.057-.1-.031a.156.156,0,0,1-.118.014,1.161,1.161,0,0,0-.2-.017.539.539,0,0,1-.155-.023.654.654,0,0,1-.1-.044l-.141-.157c-.028-.031-.117-.162-.1-.109s.085.128.04.094-.112-.078-.1-.111.027-.068,0-.08-.063,0-.064-.027,0-.069-.019-.089-.026-.034-.012-.034a.521.521,0,0,1,.122.037c.031.03.064.058.1.085s.061.061.048.018-.038-.045-.064-.106a1.561,1.561,0,0,0-.077-.146l-.006-.048s.034-.054.007-.06-.01-.063,0-.069-.014-.077-.024-.1.044-.13-.011-.084-.085.11-.114.063.034-.12,0-.137-.092-.053-.092-.074-.009-.1-.03-.1a.784.784,0,0,0-.145.008c-.012.011-.133.108-.165.142s-.143.144-.152.157-.052,0-.05.053a.325.325,0,0,1-.019.116c-.007.019,0,.1-.032.127s-.059.049-.08.04-.038-.078-.063-.134a.971.971,0,0,0-.065-.171c-.024-.018-.051-.026-.053-.057s-.025-.154-.025-.168.017-.09,0-.082a.572.572,0,0,1-.109.008.626.626,0,0,1-.063-.081.363.363,0,0,0-.153-.112c-.043,0-.14.022-.157.016s-.16,0-.176-.021-.064-.085-.077-.073-.037.035-.062.02-.2-.129-.21-.14-.039-.023-.048-.015a.028.028,0,0,0-.006.029c0,.006.02.035.026.046s.051.083.06.094.044-.012.053.017-.016.052.006.078.034-.007.054-.006a.111.111,0,0,0,.066-.022c.009-.009.05-.067.062-.055s.027.006.031.029,0,.044.011.045a.282.282,0,0,1,.078.038c.019.016.047.025.05.037s-.035.125-.052.125-.058-.011-.051.012.03.034.01.05-.061.029-.079.052-.1.045-.171.092a1.313,1.313,0,0,1-.21.11c-.018,0-.113.036-.124,0s-.07-.166-.07-.166-.121-.108-.113-.155a.126.126,0,0,0-.018-.117,1.088,1.088,0,0,1-.1-.182c-.009-.019-.018-.092-.027-.11s-.018.045-.017.061-.022,0-.027-.009-.03-.039-.031-.033a.234.234,0,0,0,.023.051.054.054,0,0,1,.018.033.662.662,0,0,0,.024.084c.007.017.042.117.045.123a.58.58,0,0,1,.024.084.668.668,0,0,0,.047.132c.011.013.1.051.1.072s-.011.042.009.058.034.075.049.106.03.07.071.064.325-.072.309-.023a1.294,1.294,0,0,1-.1.263c-.034.04-.121.109-.164.153a2.017,2.017,0,0,0-.2.229c-.02.041.011.1,0,.136s-.011.049,0,.057a.4.4,0,0,1,.055.116.773.773,0,0,1-.025.2,1.427,1.427,0,0,0-.119.085c-.011.017-.046.033-.038.056s.037.032.036.055-.006.1-.02.11-.046.009-.04.033a.082.082,0,0,1,0,.049c-.007.017-.015.024-.026.052s-.024.06-.035.078a.111.111,0,0,1-.087.052c-.037,0-.089-.017-.114-.013s-.047,0-.051,0a.079.079,0,0,1-.044-.025.6.6,0,0,0-.038-.047.244.244,0,0,0-.029-.075c-.021-.027-.064-.106-.088-.141a.418.418,0,0,1-.054-.12.453.453,0,0,0-.013-.064.563.563,0,0,1-.029-.049.34.34,0,0,0-.029-.065c-.011-.015-.046-.054-.045-.069s-.009-.14-.007-.146.038-.041.031-.063A.442.442,0,0,0,19.4,11.9a.123.123,0,0,1-.013-.041.034.034,0,0,0,0-.028.411.411,0,0,1-.027-.051.394.394,0,0,0-.038-.1c-.021-.03-.076-.064-.069-.1a.718.718,0,0,0,.01-.1c0-.017.015-.065,0-.08s-.029-.036-.041-.032-.027.008-.035,0-.03-.061-.041-.065l-.036-.012a.072.072,0,0,0-.029.02c-.009.014-.027.042-.043.033s-.035-.015-.043-.009a.13.13,0,0,1-.043.02.613.613,0,0,1-.07-.154c0-.025-.013-.089-.016-.1a.142.142,0,0,1-.012-.057c0-.026.007-.093.008-.1s.009-.1.009-.126,0-.071,0-.077.03-.13.041-.156.037-.085.037-.085a.259.259,0,0,1,.009-.04c.01-.03.017-.063.026-.083s.025-.048.036-.071.017-.038.024-.057.008-.026.01-.014.011.006.016.005a.262.262,0,0,0,.051-.03.578.578,0,0,1,.044-.05.643.643,0,0,1,.077-.042c.031-.011.085-.045.1-.039s.032.013.026.022a.068.068,0,0,0-.018.058.528.528,0,0,1,.009.081c0,.017.009.021.03.02s.039-.02.053.006a.16.16,0,0,0,.1.05c.039.006.071-.127.107-.107a.261.261,0,0,0,.1.055.534.534,0,0,0,.12-.007.036.036,0,0,1,.048-.019l.008,0c.035.028.039.035.063.02s.038-.026.056-.04a.326.326,0,0,1,.016-.1c.016-.033.034-.066.039-.077s.018-.054-.011-.046-.061.043-.075.034-.039-.03-.061-.015a.191.191,0,0,1-.061.029.783.783,0,0,0-.092.034s-.027-.031-.02-.052.022-.036.022-.056-.016-.037,0-.061a.544.544,0,0,1,.044-.073c-.024.011-.047.023-.07.036-.007,0-.011.046-.019.047s-.045-.04-.052-.025a.1.1,0,0,0-.006.063c.005.026-.031.061-.031.061s-.038-.025-.036-.037-.018-.1-.015-.108a.077.077,0,0,0-.014-.039c-.006-.009-.075-.047-.086-.061s-.023-.071-.032-.058l-.023.035s0,.022.009.026,0,.032.026.05a.713.713,0,0,1,.088.068s-.01.045-.01.045-.035-.03-.038-.015.016.036.008.046-.055.07-.061.062-.012,0-.012.011-.005.027-.014.031-.064-.022-.056-.03A.345.345,0,0,1,19.465,10c.009,0,.02.018.023.006a.26.26,0,0,1,.015-.042c0-.006.013-.018,0-.028s-.081-.067-.087-.078a.43.43,0,0,0-.029-.078.276.276,0,0,0-.029.03c-.007.008-.044.061-.054.056s-.028-.02-.041,0-.015.029-.01.034,0,.02-.006.024a.131.131,0,0,0-.024.028A.207.207,0,0,1,19.2,10a.185.185,0,0,0-.026.055c-.006.024,0,.009-.008.028a.35.35,0,0,1-.041.073c-.014.013-.035.017-.04.027a.235.235,0,0,1-.019.025l-.007-.022s-.007-.008-.011,0-.011-.006-.01-.012a.536.536,0,0,1,.015-.078c.008-.02.022-.058.025-.069l.007-.031a.058.058,0,0,1,.009-.025l.017-.027s.006,0,.011,0l.018-.017a.014.014,0,0,0,.014,0c.01-.008.035-.02.037-.024a.471.471,0,0,0,.032-.081c0-.017.009-.042.005-.044a.188.188,0,0,1-.014-.042l.014-.018s.026,0,.025-.009a.076.076,0,0,1,.011-.033l.021-.017a.315.315,0,0,0,.036-.037l.034-.052a.379.379,0,0,1,.03-.04c.015-.017.063-.1.063-.1a.641.641,0,0,1,.039-.052s-.025.045-.016.037a.28.28,0,0,0,.028-.031.394.394,0,0,0,.036-.063.258.258,0,0,1,.038-.064c.008-.008.055-.061.052-.052s-.008.045.006.032.013-.015.013-.019l0-.023.02-.05a.026.026,0,0,0-.015.009c-.008.009-.034.038-.05.054a.17.17,0,0,1-.034.026.058.058,0,0,1,0-.041l.017-.02.006-.013a.214.214,0,0,1,.021-.025c.006-.007.032-.037.04-.045s.056-.058.071-.072l.061-.056a.273.273,0,0,0,.025-.023c.019-.018.023-.018.033-.029l.036-.033.044-.037.041-.03h0a2.907,2.907,0,0,1,.436-.275h0l.008,0s.05-.022.016-.006a.25.25,0,0,0-.035.021s0,0,.027-.012a.178.178,0,0,1,.04-.017c.009,0,.049-.018.061-.02a.229.229,0,0,1,.054-.006c.014,0,.02.009.029.01s.024,0,.029,0-.014.018-.022.026a.387.387,0,0,1-.061.038.228.228,0,0,1-.036.015l-.044.007c-.012,0-.076.014-.076.014s-.022.006-.019.012.03,0,.03,0,.031-.012.009,0-.025.019-.02.022,0,.015,0,.02,0,.007.013.008.024,0,.022,0,.006.006.012.005.032-.027.026-.027h-.031c-.013,0-.007-.006,0-.013a.03.03,0,0,1,.032-.016c.019.005.029,0,.034.005s0,.019.017.008.026-.021.026-.028-.015-.005-.009-.011a.612.612,0,0,1,.069-.043.384.384,0,0,0,.056-.041s.025-.012.016,0-.012.015-.006.016.007.01.013.008.027-.022.027-.028,0-.01-.007-.01-.023,0-.007-.009l.026-.019,0-.011-.007-.009s.027-.01.036-.01a.283.283,0,0,1,.041,0c.007,0,.014,0,.007.011a.087.087,0,0,1-.03.016c-.02.01-.03.01-.023.012s.01,0,.015.006a.1.1,0,0,0,.063-.023.112.112,0,0,1,.042-.025c.034-.013.106-.049.116-.053s.039-.01.058-.014-.009.009,0,.011-.012.01-.022.014l-.019.008a.084.084,0,0,0,.039-.006.061.061,0,0,1,.018-.012l.026-.01-.016-.005a.075.075,0,0,1,.036-.01l.029,0c.01,0,.025,0,.04,0s.019,0,.021-.007a.078.078,0,0,1,.02-.011l0,.009a.028.028,0,0,0,.018,0c.011,0,.029,0,.024-.009s0-.01-.02-.016a.189.189,0,0,0-.034-.009c-.02,0,.021-.014.021-.014a.041.041,0,0,0,.024.008c.015,0,.061,0,.1,0a.115.115,0,0,1,.058.009c.018.007-.008.006.047.012s.071.007.074.013.008-.006.01-.013.008-.006-.015-.013l-.04-.011c-.026-.006-.013-.01-.014-.02s-.012-.009-.015-.011,0,0,.022-.01.045-.012.05-.015l.022-.017a.059.059,0,0,1,.029-.007l.031,0a.093.093,0,0,1,.023,0c.009,0,.021,0,.015,0s-.011,0,0,0a.14.14,0,0,1,.029,0s0,0,0,.009l-.014.011s-.015,0-.006.007.006.006.012.013,0,.008,0,.014,0,.017,0,.02.025,0,.008.011,0,.012,0,.017.012.011.007.017,0,.012-.008.021a.059.059,0,0,1-.029.025c-.014,0-.09.011-.09.011s-.025,0-.024,0,.036.012.036.012a.424.424,0,0,0,.071,0l.034-.016c.008,0,.033,0,.038-.009s0-.024.013-.029.039,0,.02-.014-.04-.014-.034-.017c.022,0,.045-.007.067-.009a.136.136,0,0,0-.045-.006c-.033,0-.028,0-.028-.005s-.015-.027-.009-.03.034,0,.014-.009-.023-.008-.018-.017.029-.014.029-.014l.014-.006a.05.05,0,0,1,.023-.009s.021.007.015.009a.032.032,0,0,0-.012.011s.018,0,.018,0l.011-.01a.145.145,0,0,1,.029,0l.066.007c.015,0,.049.007.061.01l.046.007s0,0,0,.009-.006.008.007.016.042.01.037,0a.059.059,0,0,0-.012-.02l-.028-.009-.014-.006c-.011,0-.032,0-.046-.009s0-.008-.008-.009l-.011,0,.141.008.044.005s.026,0,0,0h-.006Zm2.045,1.189c.039.055.077.111.113.169h0s.018.059.023.079a.058.058,0,0,1,0,.032l.008.037s0,.028-.006.023-.007-.025-.007-.025l0-.022-.014-.037.012.006a.045.045,0,0,0-.007-.028.059.059,0,0,1-.01-.028c-.005-.01-.01-.02-.016-.03a.559.559,0,0,1-.028-.05c-.011-.02-.063-.1-.066-.114l-.007-.012Zm-4.739,0,.032-.044h0l.02-.027,0,0-.023.029c-.007.01.009-.007.012-.006a.446.446,0,0,1-.041.056c0,.006-.008.046,0,.047s-.009.042-.013.052a.12.12,0,0,1-.021.034c-.011.016-.007.025-.018.042a.3.3,0,0,1-.05.045.558.558,0,0,1-.056.053.421.421,0,0,1,.044-.066c.013-.019,0-.005,0-.01a.033.033,0,0,1,.007-.016.264.264,0,0,0,.02-.037l.009-.015s.028-.04.032-.047-.017.016-.021.018a.337.337,0,0,1,.019-.032c.011-.017-.006.006,0,0s-.012.013-.007.006l.006-.01a.236.236,0,0,1,.016-.024l-.01.014.009-.014,0,0h0l.014-.02h0l.007-.011,0,0ZM21.12,8.271c.035-.008.07-.015.106-.02H21.22c-.008,0-.051.011-.059.014a.174.174,0,0,0-.049.02c-.01.01.1,0,.053.014a.45.45,0,0,1-.1.017c-.018,0,0-.012-.018-.012s-.063.008-.05,0,.053-.015.061-.019a.176.176,0,0,1,.03-.01.337.337,0,0,0,.034-.009Zm-1.909,1.753c-.009.011-.017.022-.025.034s0,.022,0,.017l.018-.03a.018.018,0,0,1,.014-.006c.008,0,.012-.013.018-.022s.024-.01.016-.025-.013-.014-.02,0l-.018.033h0Zm.162-.184a.062.062,0,0,0-.014.046.035.035,0,0,1-.007.034c-.009.01-.026.011-.024.024s.013.02,0,.036a.063.063,0,0,0,0,.036s.025.017.029-.015.016-.067.014-.073-.01-.005,0-.034a.089.089,0,0,0,.011-.053S19.373,9.842,19.373,9.84ZM21.978,11.2c-.006.011-.04.069-.033.087a.207.207,0,0,0,.046.085c.021.016.053-.021.054-.026s.026-.03.018-.043-.027-.041-.036-.056a.279.279,0,0,0-.035-.042l-.014-.005Zm1.926-.932c.018.042.031-.007.047-.023a.161.161,0,0,1,.077-.02c.007,0,.03-.011.043-.029s-.016-.126,0-.105.027.027.048.019.019-.052.026-.067.049-.032.023-.066-.046-.061-.039-.07l.043-.041c.006-.006.059-.091.052-.081s-.054.052-.062.035-.033-.014-.044-.032a.44.44,0,0,1-.031-.056s-.012-.041-.005-.034.028.015.013-.011-.043-.041-.031-.057.036-.006.014-.041-.115-.237-.11-.213a.285.285,0,0,0,.011.065.081.081,0,0,0,.011.029.3.3,0,0,1,.028.064c0,.008.025.078.03.087s0,.029,0,.04a.147.147,0,0,0,0,.036c0,.012.024.032.014.032s-.031-.016-.018.01.039.015.038.057-.017.048-.029.048-.044-.043-.026,0,.039.035.045.061a.318.318,0,0,1,.017.074c0,.023-.025.017-.028.038s-.028.01-.04.031-.009.041-.022.053-.024.018-.029,0,0-.059-.024-.026a.14.14,0,0,0-.027.076c-.008.013-.03,0-.041.014a.1.1,0,0,0-.007.077.055.055,0,0,1,.006.043c-.007.007.009.006.012.01s.007-.009,0-.015,0-.013,0-.013Zm-.312.323c0,.026.033.089.041.074a.822.822,0,0,1,.033-.1c.013-.022.018-.027.01-.039s-.028-.029-.042-.015-.018.035-.027.043a.078.078,0,0,0-.015.032Zm.111.646a.686.686,0,0,0,.076.109c.018.02.071-.083.058-.111s0-.085-.025-.064-.045.044-.043.064-.03.009-.04,0-.015-.023-.019-.017l-.007.009v.01Zm-.116-.363a.552.552,0,0,0,.042.169c0,.007.043-.014.049-.033s-.008-.051.009-.081,0-.105-.01-.1-.043-.019-.048.013-.01.013-.014.019l-.014.009-.014.007Zm-.105.8c.02-.036.036-.138.058-.135s.02-.018,0-.055-.021-.091.009-.08.062-.056.04-.056-.086-.048-.1-.032-.088.117-.1.145.031.081-.034.082-.12.032-.121.012-.063-.114-.065-.04a.181.181,0,0,0,.05.124.339.339,0,0,0,.079.09c.019.011.053-.026.093.009a.061.061,0,0,0,.081-.007.4.4,0,0,1,.011-.058Zm.2.038c-.012-.02-.065-.07-.053-.087s.051-.061.074-.061.085-.061.077-.067-.036.015-.056.027a.192.192,0,0,1-.079.005s-.041,0-.075.067a.13.13,0,0,0-.013.138c.018.037.039.039.041.048s.029-.012.042-.032a.132.132,0,0,1,.041-.037Zm.44.059c.01.052.022.059.032.067s.03.041.052.017.061-.057.065-.039.041.04.052.048a.025.025,0,0,0,.033-.012v0c0-.015.023-.066.015-.057s-.022.025-.028.014a.368.368,0,0,1-.036-.04c-.02-.028-.009-.049-.019-.07s-.028-.062-.051-.062a.1.1,0,0,1-.07-.013.121.121,0,0,0-.067-.03c-.014,0-.03-.038-.033-.022s.006.04,0,.056-.024-.008-.031-.02-.027-.056-.042-.036-.038-.02-.033.027a.26.26,0,0,0,.026.1c.01.017.059,0,.073.015s.04.052.04.052a.046.046,0,0,0,.019.008Zm-3.27-3.378c-.008.013.013.014.024.011s.055-.016.047-.022a.058.058,0,0,0-.039,0Zm-1.6,1.219c0,.007-.047.072-.045.066a.028.028,0,0,1,.007-.019c.009-.013.017-.027.025-.041s.007-.016.014-.028l.035-.053a.3.3,0,0,1,.022-.03c0,.007,0,0,0,.011l-.024.039-.016.03Zm4.691,3.25c0,.008-.026.061-.016.053a.652.652,0,0,0,.05-.055l.028-.04v-.007s.028-.032.017-.027l-.016.01v.01a.075.075,0,0,1-.014.017c-.01.01-.02.017-.022.015l-.014.011s.008-.018,0-.015-.02.01-.02.016.009,0,.009,0l-.005.007Zm-.685.037s.058-.068.051-.082-.017-.023-.018-.041.009-.038-.006-.064-.041-.068-.048-.083.061-.121.072-.133.078-.108.091-.1a.9.9,0,0,0,.123-.044c.008,0,.063-.031.067-.052a.234.234,0,0,1,.039-.083c.007,0,.012.015.026,0s.074-.146.091-.135l.065.046a.252.252,0,0,0,.051-.062c.008-.022.024-.043.017-.059s.048-.061.054-.048.043,0,.052.008.054-.02.057,0a.2.2,0,0,1-.016.081.078.078,0,0,0,0,.056c.006.011.048.038.056.031s.015-.008.015,0a.04.04,0,0,0,.009.021s.038-.037.037-.057a1.37,1.37,0,0,1,.028-.142s.02-.081.027-.058.021.02.021.041a.433.433,0,0,0,0,.072c0,.018.033.03.026.056a.314.314,0,0,0-.018.086c0,.02.008.018.009.024s.035.058.035.067a.368.368,0,0,0-.008.058c0,.027.01.02,0,.045s-.027.081-.035.1a.852.852,0,0,1-.046.084c-.023.036-.056.089-.062.1a.724.724,0,0,1-.041.071.2.2,0,0,0-.045.041.326.326,0,0,1-.034.04s.011-.03-.012-.005-.019.028-.036.033-.025.009-.035.011.011-.058,0-.069a.1.1,0,0,1-.015-.033s.028-.054.015-.04-.067.12-.077.1-.024-.087-.037-.083a1.3,1.3,0,0,0-.145.06.3.3,0,0,1-.074.037c-.009,0-.033.028-.04.04s-.123.032-.137.042-.037.048-.067.051-.059.014-.071,0a.028.028,0,0,1-.013-.031Zm-2.808-.476c.006-.025-.032-.093.008-.122a1.216,1.216,0,0,0,.151-.17c.009-.016.034-.05.046-.027a.491.491,0,0,1,.021.131.344.344,0,0,1-.031.13.9.9,0,0,0-.029.162.346.346,0,0,1-.043.116c-.008.007-.052.038-.065.036s-.062-.011-.05-.026.018-.018.009-.034-.026-.074-.035-.088a.122.122,0,0,1,.009-.084.031.031,0,0,0,.01-.024Z" transform="translate(-0.054 -0.033)"/><path class="cls-3" d="M61.879,13.883l0-1.387h1.131L61.891,8.871l-1.535,5H59.123l2.15-7h1.24l2.149,7H63.85v.01Z" transform="translate(-0.054 -0.033)"/><path class="cls-3" d="M64.905,13.878V6.846h2.787a1.641,1.641,0,0,1,1.471,1.767v.681a2,2,0,0,1-.307,1.071,1.985,1.985,0,0,1,.307,1.07v2.443Zm3.106-4.584V8.613a.357.357,0,0,0-.319-.385h-1.64V9.659h1.656A.338.338,0,0,0,68.011,9.294Zm0,2.141a.348.348,0,0,0-.307-.375H66.052v1.431h1.959Z" transform="translate(-0.054 -0.033)"/><path class="cls-3" d="M25.261,13.855V6.925h1.367v6.93ZM26.294,12a.346.346,0,0,0-.281-.334V8.042a.346.346,0,0,0,.281-.334.349.349,0,0,0-.7,0,.346.346,0,0,0,.281.334v3.619a.345.345,0,0,0,.068.682A.35.35,0,0,0,26.294,12Zm-.558-4.287a.209.209,0,0,1,.417-.013v.013a.209.209,0,0,1-.417,0Zm0,4.287a.2.2,0,0,1,.142-.193l.018,0,.051,0,.067,0a.2.2,0,0,1,.14.193.209.209,0,0,1-.417,0Zm3.234,1.861V11.023H27.215V9.66H28.97V6.925h1.367v6.93Zm1-1.006a.347.347,0,0,0-.277-.333V10.26H28.359a.348.348,0,1,0,0,.135h1.2v2.122a.344.344,0,1,0,.412.333Zm-2.153-2.523a.207.207,0,0,1,.206-.207h0a.21.21,0,0,1,.213.207.215.215,0,0,1-.213.213A.21.21,0,0,1,27.816,10.327Zm1.6,2.523a.211.211,0,0,1,.213-.208.208.208,0,1,1,0,.416.211.211,0,0,1-.213-.208Z" transform="translate(-0.054 -0.033)"/><path class="cls-30" d="M55.327,7.454a.348.348,0,0,0-.7,0h0a.344.344,0,0,0,.28.336v3.845a.344.344,0,0,0-.28.336.355.355,0,0,0,.615.245l0,0a.357.357,0,0,0-.2-.578V7.789A.345.345,0,0,0,55.327,7.454Zm-.14,4.516a.208.208,0,0,1-.2.21h0a.212.212,0,0,1-.212-.21.215.215,0,0,1,.212-.214.211.211,0,0,1,.208.215Zm-.208-4.3a.215.215,0,0,1-.212-.214.212.212,0,0,1,.212-.21.208.208,0,0,1,.208.207v0A.211.211,0,0,1,54.979,7.668Z" transform="translate(-0.054 -0.033)"/><path class="cls-3" d="M55.187,7.707a.2.2,0,0,0-.207-.2h0a.205.205,0,0,0-.212.2.21.21,0,0,0,.212.2A.207.207,0,0,0,55.187,7.707Z" transform="translate(-0.054 -0.033)"/><path class="cls-3" d="M55.669,12.5V6.9H54.3v5.6a1.371,1.371,0,0,0,1.365,1.377h3.176V12.5Zm-.42-.277,0,0a.362.362,0,0,1-.511,0,.355.355,0,0,1-.1-.231.332.332,0,0,1,.28-.319V8.025a.33.33,0,0,1-.28-.318.348.348,0,0,1,.7,0,.33.33,0,0,1-.28.318V11.67a.335.335,0,0,1,.2.549Z" transform="translate(-0.054 -0.033)"/><ellipse class="cls-31" cx="37.239" cy="16.858" rx="0.29" ry="0.278"/><ellipse class="cls-31" cx="48.44" cy="16.858" rx="0.29" ry="0.278"/><ellipse class="cls-31" cx="60.863" cy="16.858" rx="0.29" ry="0.278"/><line class="cls-32" x1="25.207" y1="14.575" x2="69.109" y2="14.702"/></g></g></svg>